<svg xmlns="http://www.w3.org/2000/svg" viewBox="0 0 89.3 88.21"><defs><style>.cls-1{fill:#fff;}</style></defs><title>Ресурс 1</title><g id="Слой_2" data-name="Слой 2"><g id="Слой_2-2" data-name="Слой 2"><path class="cls-1" d="M76.6,10.21C58.14-3.57,31-5.19,11,16.56-7.36,36.42-1,65.49,17.45,79.28S53.1,92.18,74.68,67.55C92.5,47.22,95.07,24,76.6,10.21ZM43.85,65.91a3.71,3.71,0,1,1,3.71-3.71A3.71,3.71,0,0,1,43.85,65.91ZM47,47.06v4.13a3,3,0,0,1-3.1,3.11,3.12,3.12,0,0,1-3.11-3.11v-6.6c0-.06.06-.06.06-.13s-.06-.06-.06-.13a3.2,3.2,0,0,1,3.11-3.1,7.11,7.11,0,1,0,0-14.22,7,7,0,0,0-6.1,3.49,3.13,3.13,0,0,1-4.31,1.14,3.09,3.09,0,0,1-1.08-4.25A13.33,13.33,0,1,1,47,47.06Z"/></g></g></svg>