<svg xmlns="http://www.w3.org/2000/svg" xmlns:xlink="http://www.w3.org/1999/xlink" viewBox="0 0 165.26 105.94"><defs><style>.cls-1{fill:url(#linear-gradient);}.cls-2{fill:#fff;}.cls-3{fill:none;stroke:#fff;stroke-linecap:round;stroke-miterlimit:10;stroke-width:6px;}.cls-4{fill:#f93d5d;}</style><linearGradient id="linear-gradient" y1="55.2" x2="127.98" y2="55.2" gradientUnits="userSpaceOnUse"><stop offset="0" stop-color="#f93d5d"/><stop offset="1" stop-color="#f93d5d"/></linearGradient><symbol id="X" data-name="X" viewBox="0 0 166.1 106.48"><path class="cls-1" d="M7.08,106.48H122.58c7.83-14.32,7.39-33-3-58.75C105,11.49,75.45-6.21,43.52,9.9S-10.11,61.13,4.81,101.24C5.49,103.06,6.26,104.8,7.08,106.48Z"/><circle class="cls-2" cx="96.31" cy="46.83" r="6.88"/><circle class="cls-2" cx="33.1" cy="48.67" r="4.59"/><line class="cls-3" x1="60.89" y1="82.86" x2="75.25" y2="80.05"/><path class="cls-4" d="M133.65,24.1a2.54,2.54,0,0,1-2.3-2.8L133,2.36A2.57,2.57,0,0,1,135.81,0a2.61,2.61,0,0,1,2.35,2.81l-1.7,18.94A2.58,2.58,0,0,1,133.65,24.1Zm-.21,2.63A3.15,3.15,0,1,1,130,29.59,3.15,3.15,0,0,1,133.44,26.73Z"/><path class="cls-4" d="M149.74,38.45a3.32,3.32,0,0,1-1.39-4.53l11.44-22a3.35,3.35,0,0,1,4.5-1.47A3.41,3.41,0,0,1,165.73,15L154.29,37A3.37,3.37,0,0,1,149.74,38.45Zm-1.56,3.07a4.11,4.11,0,1,1-5.55,1.75A4.11,4.11,0,0,1,148.18,41.52Z"/></symbol></defs><title>Asset 4</title><g id="Layer_2" data-name="Layer 2"><g id="Layer_1-2" data-name="Layer 1"><use id="X-3" data-name="X" width="166.11" height="106.48" transform="scale(0.99)" xlink:href="#X"/></g></g></svg>